<svg version="1.2" xmlns="http://www.w3.org/2000/svg" viewBox="0 0 256 256" width="256" height="256">
	<title>New Project</title>
	<style>
		.s0 { fill: #242938 } 
		.s1 { fill: #ffffff } 
	</style>
	<g id="Layer">
		<path id="Layer" class="s0" d="m0 60c0-33.1 26.9-60 60-60h136c33.1 0 60 26.9 60 60v136c0 33.1-26.9 60-60 60h-136c-33.1 0-60-26.9-60-60z"/>
		<path id="Layer" fill-rule="evenodd" class="s1" d="m137.9 28.3c7.6 0.9 14.4 2.3 20.8 4.4 36.2 11.7 63 43.2 68.4 80.8 0.8 5.5 0.9 7.1 0.9 14.5 0 7.5-0.1 9.1-0.9 14.6-2.7 18.9-10.9 36.6-23.5 51.1-6 6.9-13.5 13.4-20.6 18l-0.8 0.6-15.8-24c-8.7-13.2-26.5-40.1-39.5-59.8-13-19.7-23.8-36-24.1-36.3-1-1.2-1.7-1.3-5.7-1.3-3.4 0-3.7 0-4.5 0.4-0.5 0.3-1.1 0.8-1.4 1.2l-0.6 0.8-0.1 39.2v39.2l0.4 0.9q0.4 0.8 1.3 1.4l0.9 0.6h3.4c2.9 0 3.5-0.1 4.1-0.4 0.8-0.4 1.2-0.8 1.7-1.8 0.4-0.7 0.4-1.8 0.4-30 0.1-16 0.2-29.2 0.2-29.2 0.1 0 9.2 13.3 20.2 29.6l20.1 29.7 15.9 21.6c8.8 11.9 16.2 21.7 16.3 21.8 0.3 0.2-0.1 0.5-1.8 1.3-11.2 5.8-22.6 9.1-36 10.6-3.1 0.3-16.1 0.3-19.2 0-7.8-0.9-14.6-2.3-21.1-4.4-36.2-11.7-63-43.2-68.4-80.8-0.8-5.5-0.9-7.1-0.9-14.6 0-7.4 0.1-9 0.9-14.5 2.3-15.8 8.3-30.6 17.7-43.7 16.8-23.6 43.4-38.9 71.8-41.5 1.3-0.1 2.6-0.2 3.1-0.2 1.6-0.2 14.5 0 16.4 0.2zm20.4 59.9c-3 0-3.3 0-4.1 0.4-1 0.5-1.6 1.4-2 2.5-0.1 0.4-0.2 9.7-0.2 26.2v25.6l6.3 9.5 6.2 9.5v-35.2c0.1-24.5 0-35.3-0.1-35.9-0.3-0.9-1.1-1.8-2-2.3-0.7-0.3-1.2-0.3-4.1-0.3z"/>
	</g>
</svg>