<svg version="1.2" xmlns="http://www.w3.org/2000/svg" viewBox="0 0 256 256" width="256" height="256">
	<title>New Project</title>
	<style>
		.s0 { fill: #242938 } 
		.s1 { fill: #00d8ff } 
		.s2 { fill: none;stroke: #00d8ff;stroke-width: 8.9 } 
	</style>
	<g id="Layer">
		<path id="Layer" class="s0" d="m0 60c0-33.1 26.9-60 60-60h136c33.1 0 60 26.9 60 60v136c0 33.1-26.9 60-60 60h-136c-33.1 0-60-26.9-60-60z"/>
		<path id="Layer" class="s1" d="m128 147c10.3 0 18.7-8.4 18.7-18.7 0-10.3-8.4-18.7-18.7-18.7-10.3 0-18.7 8.4-18.7 18.7 0 10.3 8.4 18.7 18.7 18.7z"/>
		<path id="Layer" fill-rule="evenodd" class="s2" d="m128 90.4c25.1 0 48.3 3.6 65.9 9.6 21.1 7.3 34.1 18.3 34.1 28.3 0 10.4-13.8 22.1-36.5 29.6-17.1 5.7-39.7 8.7-63.5 8.7-24.4 0-47.5-2.8-64.8-8.7-22-7.5-35.2-19.4-35.2-29.6 0-9.9 12.4-20.9 33.3-28.1 17.6-6.2 41.4-9.8 66.7-9.8z"/>
		<path id="Layer" fill-rule="evenodd" class="s2" d="m95 109.4c12.5-21.7 27.2-40 41.2-52.2 16.9-14.7 32.9-20.4 41.6-15.4 9 5.2 12.3 22.9 7.5 46.4-3.7 17.7-12.4 38.7-24.3 59.3-12.2 21.1-26.1 39.7-39.9 51.8-17.5 15.3-34.4 20.8-43.2 15.7-8.6-4.9-11.9-21.2-7.8-42.8 3.5-18.4 12.2-40.9 24.9-62.8z"/>
		<path id="Layer" fill-rule="evenodd" class="s2" d="m95 147.6c-12.5-21.7-21.1-43.6-24.6-61.8-4.3-22-1.3-38.8 7.3-43.8 9-5.2 26.1 0.9 44 16.7 13.5 12 27.4 30.1 39.3 50.7 12.2 21.1 21.4 42.5 24.9 60.4 4.5 22.8 0.9 40.2-8 45.3-8.5 5-24.2-0.3-41-14.7-14.1-12.1-29.2-30.9-41.9-52.8z"/>
	</g>
</svg>