<svg version="1.2" xmlns="http://www.w3.org/2000/svg" viewBox="0 0 256 256" width="256" height="256">
	<title>New Project</title>
	<defs>
		<clipPath clipPathUnits="userSpaceOnUse" id="cp1">
			<path d="m28 53h200v149.91h-200z"/>
		</clipPath>
	</defs>
	<style>
		.s0 { fill: #cd6799 } 
		.s1 { fill: #ffffff } 
	</style>
	<g id="Layer">
		<g id="Layer">
			<path id="Layer" class="s0" d="m0 60c0-33.1 26.9-60 60-60h136c33.1 0 60 26.9 60 60v136c0 33.1-26.9 60-60 60h-136c-33.1 0-60-26.9-60-60z"/>
			<g id="Clip-Path" clip-path="url(#cp1)">
				<g id="Layer">
					<path id="Layer" fill-rule="evenodd" class="s1" d="m227.9 161.5c-0.4 8.4-8.1 11.8-9.5 12.1-1 0.1-1.6 0.2-1.8-0.6-0.1-0.6 0.3-0.8 1.5-1.6 1.2-0.8 4.9-3.2 5.6-7.8 0.6-4.6-2.8-15.4-20.2-17.5-8.1-0.9-14.5 0.2-19.4 2.3 0.9 2.3 1.6 4.8 1.7 7.3 0.2 5.4-3.5 9.4-7.5 12.3-2.3 1.7-4.7 2.8-6.7 3.5-1.6 0.7-3.8 1.4-5.3 1.1-3.4-0.7-5.2-3.7-2.9-10.4 1.3-3.5 4.8-9 10.6-13.7-1.3-2.7-2.8-5.5-3.5-8.1-1.5-5-1.9-8-1.9-8 0 0-4.8 9.9-11 18.9-0.4 0.5-0.7 1-1 1.5 1.2 2.8 2.1 5.8 2.3 8.8 0.2 5.5-2.2 9.6-6.1 12.5-2.1 1.5-4.4 2.6-6.3 3.3-1.3 0.5-3.8 1.4-7.4 1.7-1.9 0.1-3.8 0-4.9-0.8-1.4-1.1-1.6-2.5-0.8-4.3 0.6-1.6 5.4-7.1 9.3-11.8 1.2-1.3 2.2-2.7 3.2-3.9q-0.1-0.1-0.1 0c0 0 0.7-1 1.9-2.6-1.4-3.1-3.3-6.4-4.1-9.3-1.5-5.1-2-8.1-2-8.1 0 0-4.8 12.4-9.9 22.3-3.9 7.7-6.5 12.4-7.7 14.4q0 0.1 0 0.1c0 0-0.2 0.3-0.5 0.8q-0.2 0.3-0.2 0.3 0 0 0 0c-1.3 1.9-4.2 5.7-7.2 5.7-8 0-5-16.3-5-16.3 0 0-2.4 6.1-5 11.2-2.2 4.3-4.1 7.9-8.4 7.9-1.3 0-3.2-0.1-4.9-1.6-3.6-3.5-6.5-12.4-5.9-19.3 0.4-5.8 1.3-9.9 2.6-13.3-2.2 1.2-4.8 2.6-7.4 4.1-1.3 0.8-2.6 1.6-3.9 2.4q0.1 0.1 0.1 0.2c3.3 6.4 4.2 20.3-3 31.1-7.2 10.7-20.6 17.2-33.6 13.6-4.2-1.2-10.6-9.9-5.1-22 4.8-10.7 24.2-20.8 29.3-23.3q0.6-0.4 1.3-0.8c-10.1-8.9-35.5-20.8-39-39.2-1-5.2 1.4-17.6 16.6-31.8 12.8-12 30.7-21.2 47.1-27.1 27.6-9.8 56.8-4 61.3 13.6 4.4 17.4-10.7 38.1-29.9 45.5-17.2 6.7-31.4 5.6-37.2 3.7-6.7-2.1-10.6-6.5-11.5-9-0.4-1-1-2.6 0-3.2 0.6-0.3 0.9-0.2 2.5 1.6 1.6 1.8 8 6.4 20.1 5.1 31.8-3.6 51-28.3 44.9-41.6-4.2-9.3-28.7-13.5-59.4 1.7-37.4 18.6-39.4 33.9-39.7 39.8-0.9 16 19.8 24.4 30.9 36.4 0.2 0.1 0.3 0.3 0.5 0.5 2-1.2 4.3-2.4 6.4-3.6 5.7-3.1 11-6 13.5-7.3 3.9-5.7 11.9-12 17.6-12 9.3 0 6.1 13.2 6.1 13.2 0 0 0.2-0.6 0.4-0.6 0.3 0 1.3-1.8 4.2-0.7 2.9 1 2.2 3.1 2.2 3.3 0.1 0.4-3.4 12.1-4.9 19.7-0.7 3.6-0.3 6.2 0 6.2 0.2 0 0.8-0.9 1.4-1.9q0 0 0 0c0 0 0.4-0.8 1.1-2.1q0.1-0.3 0.1-0.3c0.8-1.6 2-3.9 3.3-6.7 2.5-5.7 12.3-27.4 13.1-29.8 0.9-2.4 1.3-4.9 1.7-6 0.4-1.1 3.9-1.9 7.9-1.8 4 0 4.4 1.7 4.4 2.1 0.1 0.4-1.9 5.1-2.3 8.5-0.5 3.4 0 5.1 0.3 7.9 0.3 1.9 1.5 4.2 2.8 6.9 4.2-6.9 11.5-19.9 12.2-23.6 0.5-2.4 1.3-4.8 1.7-5.9 0.4-1.1 3.9-1.9 7.9-1.8 4 0 4.4 1.7 4.5 2.1 0 0.4-2 5.1-2.4 8.5-0.5 3.4 0 5.1 0.3 7.9 0.4 2.4 2.2 5.7 4.1 9.4 5.1-2.5 11.1-4.2 18.1-4.2 18.1-0.1 28.3 11.6 27.8 22.3zm-155.9-1.6q-0.4 0.3-0.9 0.5 0 0-0.4 0.3c-1.5 0.9-2.7 1.6-3.6 2.1-3.6 2.3-9.2 6.1-13.5 10.1-7.1 6.7-8.5 16-4.8 18.1 3.4 2 11.5-0.4 17.2-6.6 6.1-6.6 8.6-15 6-24.5zm41.1-22.6c-0.8-1.4-4.3-0.3-7.4 3.3-2 2.1-5.3 7.8-6.9 12.5-3.1 9.4-1.7 18.8 0.5 19.4 2.5 0.7 6.7-11.8 8.7-16.7 1.3-3.1 6.2-16.6 5.1-18.5zm37.4 24.2c0-0.1 0-0.3 0-0.5-1.3 1.7-2.4 3.1-3.4 4.4-1.7 2.1-6.1 6.8-6.1 6.8 0 0-0.6 0.6-0.3 0.7 0.3 0.2 1.1-0.1 2-0.5 2.4-1.5 7.8-5.3 7.8-10.9zm27-6c0-1-0.2-2.2-0.6-3.3-3.2 2.8-5.1 5.8-5.9 7.6-2.1 4.6-2.2 6.1-1.6 6.5 3-1.1 8.1-3.7 8.1-10.8z"/>
				</g>
			</g>
		</g>
	</g>
</svg>