<?xml version="1.0" encoding="utf-8"?>
<!-- Generator: Adobe Illustrator 26.2.1, SVG Export Plug-In . SVG Version: 6.00 Build 0)  -->
<svg version="1.1" id="Layer_1" xmlns="http://www.w3.org/2000/svg" xmlns:xlink="http://www.w3.org/1999/xlink" x="0px" y="0px"
	 viewBox="0 0 269.4 269.4" style="enable-background:new 0 0 269.4 269.4;" xml:space="preserve">
<style type="text/css">
	.st0{fill:#FFFFFF;}
</style>
<g>
	<path class="st0" d="M134.7,266.8c-26.8,0-53.6,0-80.4,0c-29.8,0-51.7-21.9-51.7-51.6c0-12.5,0-25,0-37.4c0-8.1,4.9-13.6,12.1-13.7
		c7.3-0.1,12.3,5.4,12.3,13.8c0,12.2,0,24.5,0,36.7c0,16.8,11,27.9,27.8,27.9c53.3,0,106.6,0,160,0c16.8,0,27.7-11,27.7-27.9
		c0-12.4,0-24.7,0-37.1c0-8.1,5.1-13.5,12.3-13.4c7.1,0.1,12,5.5,12.1,13.3c0,13.1,0.1,26.2,0,39.3c-0.2,27.8-22.4,50-50.3,50.1
		C189.2,266.9,162,266.8,134.7,266.8z"/>
	<path class="st0" d="M121.6,153.8c1.1-2.3,0.8-3.8,0.8-5.2c0-44,0-88.1,0-132.1c0-7,3-11.5,8.7-13.4c6.4-2.1,13.5,1.7,15.3,8.2
		c0.6,2,0.6,4.1,0.6,6.2c0,43.7,0,87.3,0,131c0,1.4,0,2.8,0,5.2c1.6-1.4,2.5-2.3,3.4-3.2c14.1-14.1,28.2-28.2,42.3-42.3
		c3.8-3.8,8-5.5,13.3-3.8c8,2.6,11,11.9,6.1,18.8c-0.9,1.2-1.9,2.2-3,3.2c-21.3,21.3-42.5,42.6-63.8,63.8c-7.5,7.5-13.7,7.5-21.1,0
		c-21.6-21.6-43.3-43.2-64.8-64.9c-7.4-7.4-4.9-18.6,4.7-21.2c5.2-1.4,9.3,0.6,12.9,4.2c13.9,14,27.8,27.8,41.7,41.8
		C119.6,151.2,120.4,152.3,121.6,153.8z"/>
</g>
</svg>
