<?xml version="1.0" encoding="utf-8"?>
<!-- Generator: Adobe Illustrator 26.0.2, SVG Export Plug-In . SVG Version: 6.00 Build 0)  -->
<svg version="1.1" id="Layer_1" xmlns="http://www.w3.org/2000/svg" xmlns:xlink="http://www.w3.org/1999/xlink" x="0px" y="0px"
	 viewBox="0 0 419.9 424.9" style="enable-background:new 0 0 419.9 424.9;" xml:space="preserve">
<style type="text/css">
	.st0{fill:#FFFFFF;}
</style>
<g>
	<path class="st0" d="M415.1,194.1c0,10.4,0,20.8,0,31.1c-1,0.4-0.7,1.3-0.8,2c-1,10.5-2.7,20.8-5.2,31
		c-19.4,79.9-87.4,141.5-168.9,153.1c-4.8,0.7-9.7,0.6-14.3,2.2c-10.4,0-20.8,0-31.1,0c-3.8-1.8-8-1.4-12-1.9
		c-29.1-4.1-56.1-13.9-80.9-29.7c-2.4-1.6-4.6-1.9-7.4-1c-21.2,6.9-42.4,13.7-63.7,20.5c-3.5,1.1-7,2.2-10.9,3.4
		c0.6-1.7,0.9-2.9,1.3-4c7.5-22.5,15-45.1,22.7-67.5c1.1-3.1,0.7-5.4-1.1-8c-18.5-26.6-30-56-34.4-88.2
		c-5.1-37.2-0.5-73.2,14.3-107.7C62.6,36.6,161.7-12.7,259.7,10.9c79.8,19.2,141.7,87.5,153.2,168.9
		C413.6,184.5,413.5,189.4,415.1,194.1z M278.7,323.5c4.7,0.2,10.2-0.7,15.5-2.5c29.1-10,38.9-24.1,39.6-50.9
		c0.1-4.1-1.5-6.8-5.2-8.5c-15.2-7.3-30.1-15.2-45.6-21.9c-7.9-3.4-12.4-2.1-17.6,4.8c-4,5.3-7.8,10.7-11.9,16
		c-6.2,8-10.7,9-20.1,5.2c-34.2-14-59.4-38.1-78.3-69.3c-2.6-4.2-2.1-8.1,1-11.7c3.7-4.2,7.3-8.5,11.1-12.5
		c6.4-6.7,7.8-13.6,3.5-22.4c-7-14.6-12.2-30-19.1-44.6c-1.2-2.6-2.9-5.1-5.8-5.6c-11.5-2-23-2.4-32.5,6c-7.7,6.7-13.4,15-17,24.7
		c-7.3,20.1-4.8,39.6,3.5,58.9c6.1,14,14.9,26.3,23.9,38.5c15.6,21,33.4,39.9,54.2,56c20.8,16.1,44.5,26.2,69.3,34.2
		C257.2,320.9,267.3,323.6,278.7,323.5z"/>
</g>
</svg>
